<svg xmlns="http://www.w3.org/2000/svg" width="61" height="21" viewBox="0 0 61 21" fill="none">
    <path d="M0.109253 7.64665C0.109253 7.49405 0.190445 7.35297 0.322391 7.27631L3.12255 5.64934C3.26533 5.56639 3.4443 5.66939 3.4443 5.83452V17.6168C3.4443 17.6987 3.37794 17.765 3.29608 17.765H0.257477C0.175615 17.765 0.109253 17.6987 0.109253 17.6168V7.64665Z" fill="white" fill-opacity="0.87" />
    <path d="M0.109256 7.16184C0.109256 7.10892 0.137477 7.06 0.183299 7.03352L3.2219 5.277C3.32072 5.21988 3.4443 5.29119 3.4443 5.40533L3.4443 11.4654C3.4443 11.5882 3.34476 11.6877 3.22197 11.6877H0.331592C0.208799 11.6877 0.109256 11.5882 0.109256 11.4654V7.16184Z" fill="white" fill-opacity="0.87" />
    <path d="M8.5358 5.09729L0.406928 9.76468C0.222794 9.8704 0.109253 10.0665 0.109253 10.2788V13.7443L8.90544 8.66572C9.08889 8.55981 9.20189 8.36408 9.20189 8.15226V5.48292C9.20189 5.14108 8.83225 4.92708 8.5358 5.09729Z" fill="white" fill-opacity="0.87" />
    <path fill-rule="evenodd" clip-rule="evenodd" d="M0.467651 13.5377C0.254325 13.6527 0.10934 13.8781 0.10934 14.1374C0.10934 14.1391 0.109346 14.1408 0.109358 14.1425L0.109327 14.1425L0.109327 13.3345L0.467651 13.5377Z" fill="white" fill-opacity="0.87" />
    <path fill-rule="evenodd" clip-rule="evenodd" d="M8.88538 8.67734C8.91493 8.60686 8.93126 8.52946 8.93126 8.44825C8.93126 8.32211 8.89187 8.20516 8.82471 8.10905L9.20375 7.89453V8.1512C9.20375 8.36287 9.09091 8.55848 8.90768 8.66445L8.88538 8.67734Z" fill="white" fill-opacity="0.87" />
    <path d="M8.82977 8.11932C8.72817 7.80685 3.51539 4.30515 -0.0725034 1.87936C-0.193556 1.79752 -0.134933 1.60894 0.0111905 1.60894L4.28438 1.60891C4.31445 1.60891 4.34381 1.61805 4.36856 1.63513L8.9478 4.79434C9.10823 4.90502 9.20401 5.08747 9.20401 5.28237L9.20401 7.90183L8.82977 8.11932Z" fill="white" fill-opacity="0.87" />
    <path d="M11.3405 11.3556C11.216 11.318 11.0293 11.2929 10.8427 11.2929C10.3449 11.2929 9.56088 11.4936 9.23732 12.196V11.3556H7.40796V17.5893H9.29954V14.8676C9.29954 13.6258 9.984 13.1743 10.7431 13.1743C10.9298 13.1743 11.1289 13.1868 11.3405 13.237V11.3556Z" fill="white" fill-opacity="0.87" />
    <path d="M15.2523 16.0215C14.543 16.0215 13.8586 15.5072 13.8586 14.4662C13.8586 13.4126 14.543 12.9235 15.2523 12.9235C15.9741 12.9235 16.6461 13.4126 16.6461 14.4662C16.6461 15.5198 15.9741 16.0215 15.2523 16.0215ZM15.2523 11.1675C13.4105 11.1675 11.967 12.5346 11.967 14.4662C11.967 16.3978 13.4105 17.7775 15.2523 17.7775C17.1066 17.7775 18.5377 16.3978 18.5377 14.4662C18.5377 12.5346 17.1066 11.1675 15.2523 11.1675Z" fill="white" fill-opacity="0.87" />
    <path d="M19.3198 17.9405C19.494 19.0568 20.6265 20.1606 22.4061 20.1606C24.7208 20.1606 25.7163 18.6053 25.7163 16.8117V11.3556H23.9119V12.0204C23.7376 11.6943 23.2025 11.2427 22.1945 11.2427C20.502 11.2427 19.3198 12.6475 19.3198 14.2906C19.3198 16.0215 20.5518 17.3259 22.1945 17.3259C23.0905 17.3259 23.6256 16.9622 23.8496 16.6235V16.912C23.8496 18.0409 23.2647 18.5049 22.3189 18.5049C21.6096 18.5049 21.1118 18.0659 20.9874 17.4639L19.3198 17.9405ZM22.543 15.6703C21.7838 15.6703 21.2114 15.1435 21.2114 14.2906C21.2114 13.4377 21.8336 12.9109 22.543 12.9109C23.2523 12.9109 23.8621 13.4377 23.8621 14.2906C23.8621 15.1435 23.3145 15.6703 22.543 15.6703Z" fill="white" fill-opacity="0.87" />
    <path d="M31.247 11.3556C31.1225 11.318 30.9359 11.2929 30.7492 11.2929C30.2514 11.2929 29.4674 11.4936 29.1438 12.196V11.3556H27.3145V17.5893H29.2061V14.8676C29.2061 13.6258 29.8905 13.1743 30.6496 13.1743C30.8363 13.1743 31.0354 13.1868 31.247 13.237V11.3556Z" fill="white" fill-opacity="0.87" />
    <path d="M32.0697 15.871C32.0697 16.8618 32.8537 17.7649 34.2102 17.7649C35.0315 17.7649 35.6289 17.4137 35.9524 16.8869C35.9524 17.3134 36.0022 17.5392 36.0146 17.5893H37.7196C37.7071 17.5266 37.6449 17.1127 37.6449 16.6235V13.5757C37.6449 12.2963 36.9107 11.1675 34.9071 11.1675C33.0902 11.1675 32.2688 12.3465 32.1941 13.237L33.8368 13.5757C33.8742 13.1116 34.2351 12.6601 34.8946 12.6601C35.492 12.6601 35.8031 12.9736 35.8031 13.3374C35.8031 13.5506 35.6911 13.7136 35.3551 13.7638L33.8991 13.9896C32.8786 14.1401 32.0697 14.7672 32.0697 15.871ZM34.6706 16.3852C34.1479 16.3852 33.9364 16.0717 33.9364 15.7456C33.9364 15.3066 34.2351 15.1184 34.6333 15.0557L35.8031 14.8676V15.1435C35.8031 16.1093 35.2306 16.3852 34.6706 16.3852Z" fill="white" fill-opacity="0.87" />
    <path d="M41.1281 17.5893V14.0021C41.1281 13.4377 41.489 12.9235 42.1486 12.9235C42.833 12.9235 43.1441 13.3875 43.1441 13.977V17.5893H45.0108V13.9896C45.0108 13.4377 45.3717 12.9235 46.0437 12.9235C46.7157 12.9235 47.0269 13.3875 47.0269 13.977V17.5893H48.8562V13.5506C48.8562 11.8573 47.7362 11.1675 46.5664 11.1675C45.7326 11.1675 45.1353 11.4434 44.6499 12.1458C44.3388 11.5312 43.7042 11.1675 42.8206 11.1675C42.1486 11.1675 41.3521 11.5187 41.041 12.0706V11.3556H39.2365V17.5893H41.1281Z" fill="white" fill-opacity="0.87" />
    <path d="M60.0288 17.5893V15.9462H57.1292L59.979 12.9235V11.3556H54.914V12.9862H57.5647L54.8394 15.9086V17.5893H60.0288Z" fill="white" fill-opacity="0.87" />
    <path d="M52.7386 17.5762H50.5637L51.2036 13.4895H50.5637V11.2119H53.3746V13.4895L52.7386 17.5762Z" fill="white" fill-opacity="0.87" />
    <path d="M53.3746 7.09717H50.5637V9.792H53.3746V7.09717Z" fill="white" fill-opacity="0.87" />
</svg>